<svg xmlns="http://www.w3.org/2000/svg" width="144" height="53" viewBox="0 0 144 53">
  <g id="Logo" transform="translate(-610 -32)">
    <g id="Group_35691" data-name="Group 35691" transform="translate(-2 -1)">
      <path id="Path_37476" data-name="Path 37476" d="M2.949,4.721a4.657,4.657,0,0,0-.626.433,3.272,3.272,0,0,0-.5.5,2.274,2.274,0,0,0-.328.565,1.669,1.669,0,0,0-.118.622,1.942,1.942,0,0,0,.118.683,1.644,1.644,0,0,0,.335.551,1.547,1.547,0,0,0,.531.369,1.772,1.772,0,0,0,.707.135,2.286,2.286,0,0,0,1.018-.237,5.191,5.191,0,0,0,.923-.582q-.3-.331-.585-.7T3.889,6.3q-.257-.389-.49-.791T2.949,4.721Zm.974-.994q.352-.183.656-.379a3.193,3.193,0,0,0,.531-.423,1.767,1.767,0,0,0,.355-.5,1.408,1.408,0,0,0,.129-.605,1.826,1.826,0,0,0-.085-.578,1.364,1.364,0,0,0-.23-.433A1,1,0,0,0,4.941.534.931.931,0,0,0,4.525.44a.863.863,0,0,0-.46.129A1.276,1.276,0,0,0,3.7.9a1.716,1.716,0,0,0-.24.46,1.531,1.531,0,0,0-.088.5,3.142,3.142,0,0,0,.145.893A5.206,5.206,0,0,0,3.923,3.727Zm3.93.609a6.559,6.559,0,0,1-.2.859,4.9,4.9,0,0,1-.284.714,5.213,5.213,0,0,1-.386.653q-.22.318-.5.67a6.373,6.373,0,0,0,.984.835,1.577,1.577,0,0,0,.856.308,1.755,1.755,0,0,0,.866-.2,1.393,1.393,0,0,0,.575-.707l.257.095a2.473,2.473,0,0,1-.287.778,2.078,2.078,0,0,1-.49.572,2.034,2.034,0,0,1-.663.352,2.641,2.641,0,0,1-.8.118,2.4,2.4,0,0,1-1.14-.315,5.463,5.463,0,0,1-1.146-.842,6.182,6.182,0,0,1-1.444.835,4.394,4.394,0,0,1-1.688.321A3.6,3.6,0,0,1,1.278,9.24a1.955,1.955,0,0,1-.731-.4,1.532,1.532,0,0,1-.416-.616A2.277,2.277,0,0,1,0,7.434,2.454,2.454,0,0,1,.233,6.341a3.142,3.142,0,0,1,.616-.856,4.626,4.626,0,0,1,.869-.673q.487-.294,1-.544a9.518,9.518,0,0,1-.45-1.1A2.782,2.782,0,0,1,2.1,2.327a2.624,2.624,0,0,1,.145-.866,2.14,2.14,0,0,1,.44-.744A2.165,2.165,0,0,1,3.423.2,2.486,2.486,0,0,1,4.444,0a2.6,2.6,0,0,1,.815.125A1.968,1.968,0,0,1,5.925.49a1.737,1.737,0,0,1,.45.588,1.812,1.812,0,0,1,.166.788,1.411,1.411,0,0,1-.21.771,2.348,2.348,0,0,1-.548.6,4.636,4.636,0,0,1-.768.48q-.43.216-.869.426A9.725,9.725,0,0,0,5,5.469q.5.659,1.072,1.3a7.217,7.217,0,0,0,1-1.4,4.792,4.792,0,0,0,.443-1.123Z" transform="matrix(1, -0.017, 0.017, 1, 710.971, 54.77)" fill="#56745b"/>
      <text id="EAT_FIT" data-name="EAT  FIT" transform="translate(672 67)" fill="#56745b" font-size="22" font-family="Quicksand-Bold, Quicksand" font-weight="700"><tspan x="0" y="0" xml:space="preserve">EAT  FIT</tspan></text>
    </g>
    <circle id="Ellipse_97" data-name="Ellipse 97" cx="26" cy="26" r="26" transform="translate(610 33)" fill="#a1c798" opacity="0.098"/>
    <g id="Group_35692" data-name="Group 35692" transform="translate(1594.004 -195.216) rotate(90)">
      <path id="Path_37477" data-name="Path 37477" d="M230.338,958.354a26.071,26.071,0,0,1,11.743-12.181,26.07,26.07,0,0,1,12.181-11.743,26.049,26.049,0,0,0-24.2-.277A26.053,26.053,0,0,0,230.338,958.354Z" fill="#a1c798" opacity="0.37" style="isolation: isolate"/>
      <path id="Path_37478" data-name="Path 37478" d="M230.338,958.354a26.071,26.071,0,0,1,11.743-12.181,26.07,26.07,0,0,1,12.181-11.743,26.049,26.049,0,0,0-24.2-.277A26.053,26.053,0,0,0,230.338,958.354Z" fill="#a1c798" opacity="0.37" style="isolation: isolate"/>
      <path id="Path_37479" data-name="Path 37479" d="M254.262,934.43a26,26,0,0,1,11.021,11.51,25.994,25.994,0,0,1,11.507,11.019,26.067,26.067,0,0,0-.194-22.334A26.067,26.067,0,0,0,254.262,934.43Z" fill="#a1c798" opacity="0.37" style="isolation: isolate"/>
      <path id="Path_37480" data-name="Path 37480" d="M254.262,934.43a26,26,0,0,1,11.021,11.51,25.994,25.994,0,0,1,11.507,11.019,26.067,26.067,0,0,0-.194-22.334A26.067,26.067,0,0,0,254.262,934.43Z" fill="#a1c798" opacity="0.37" style="isolation: isolate"/>
      <path id="Path_37481" data-name="Path 37481" d="M265.283,945.94a26,26,0,0,0-11.021-11.51,26.07,26.07,0,0,0-12.181,11.743A26.057,26.057,0,0,1,265.283,945.94Z" fill="#a1c798" opacity="0.37" style="isolation: isolate"/>
      <path id="Path_37482" data-name="Path 37482" d="M265.283,945.94a26,26,0,0,0-11.021-11.51,26.07,26.07,0,0,0-12.181,11.743A26.057,26.057,0,0,1,265.283,945.94Z" fill="#a1c798" opacity="0.37" style="isolation: isolate"/>
      <path id="Path_37483" data-name="Path 37483" d="M265.283,945.94a26,26,0,0,0-11.021-11.51,26.07,26.07,0,0,0-12.181,11.743A26.057,26.057,0,0,1,265.283,945.94Z" fill="#a1c798" opacity="0.37" style="isolation: isolate"/>
      <path id="Path_37484" data-name="Path 37484" d="M252.867,980.883a26.008,26.008,0,0,1-11.02-11.509,26.008,26.008,0,0,1-11.509-11.02,26.065,26.065,0,0,0,.2,22.333A26.067,26.067,0,0,0,252.867,980.883Z" fill="#a1c798" opacity="0.37" style="isolation: isolate"/>
      <path id="Path_37485" data-name="Path 37485" d="M252.867,980.883a26.008,26.008,0,0,1-11.02-11.509,26.008,26.008,0,0,1-11.509-11.02,26.065,26.065,0,0,0,.2,22.333A26.067,26.067,0,0,0,252.867,980.883Z" fill="#a1c798" opacity="0.37" style="isolation: isolate"/>
      <path id="Path_37486" data-name="Path 37486" d="M242.081,946.173a26.071,26.071,0,0,0-11.743,12.181,26.008,26.008,0,0,0,11.509,11.02A26.055,26.055,0,0,1,242.081,946.173Z" fill="#a1c798" opacity="0.37" style="isolation: isolate"/>
      <path id="Path_37487" data-name="Path 37487" d="M242.081,946.173a26.071,26.071,0,0,0-11.743,12.181,26.008,26.008,0,0,0,11.509,11.02A26.055,26.055,0,0,1,242.081,946.173Z" fill="#a1c798" opacity="0.37" style="isolation: isolate"/>
      <path id="Path_37488" data-name="Path 37488" d="M242.081,946.173a26.071,26.071,0,0,0-11.743,12.181,26.008,26.008,0,0,0,11.509,11.02A26.055,26.055,0,0,1,242.081,946.173Z" fill="#a1c798" opacity="0.37" style="isolation: isolate"/>
      <path id="Path_37489" data-name="Path 37489" d="M276.79,956.959a26.057,26.057,0,0,1-11.741,12.18,26.062,26.062,0,0,1-12.182,11.744,26.055,26.055,0,0,0,24.2.278A26.052,26.052,0,0,0,276.79,956.959Z" fill="#a1c798" opacity="0.37" style="isolation: isolate"/>
      <path id="Path_37490" data-name="Path 37490" d="M276.79,956.959a26.057,26.057,0,0,1-11.741,12.18,26.062,26.062,0,0,1-12.182,11.744,26.055,26.055,0,0,0,24.2.278A26.052,26.052,0,0,0,276.79,956.959Z" fill="#a1c798" opacity="0.37" style="isolation: isolate"/>
      <path id="Path_37491" data-name="Path 37491" d="M265.283,945.94a26.057,26.057,0,0,1-.234,23.2,26.057,26.057,0,0,0,11.741-12.18,25.994,25.994,0,0,0-11.507-11.019Z" fill="#a1c798" opacity="0.37" style="isolation: isolate"/>
      <path id="Path_37492" data-name="Path 37492" d="M265.283,945.94a26.057,26.057,0,0,1-.234,23.2,26.057,26.057,0,0,0,11.741-12.18,25.994,25.994,0,0,0-11.507-11.019Z" fill="#a1c798" opacity="0.37" style="isolation: isolate"/>
      <path id="Path_37493" data-name="Path 37493" d="M265.283,945.94a26.057,26.057,0,0,1-.234,23.2,26.057,26.057,0,0,0,11.741-12.18,25.994,25.994,0,0,0-11.507-11.019Z" fill="#a1c798" opacity="0.37" style="isolation: isolate"/>
      <path id="Path_37494" data-name="Path 37494" d="M241.847,969.374a26.008,26.008,0,0,0,11.02,11.509,26.062,26.062,0,0,0,12.182-11.744A26.054,26.054,0,0,1,241.847,969.374Z" fill="#a1c798" opacity="0.37" style="isolation: isolate"/>
      <path id="Path_37495" data-name="Path 37495" d="M241.847,969.374a26.008,26.008,0,0,0,11.02,11.509,26.062,26.062,0,0,0,12.182-11.744A26.054,26.054,0,0,1,241.847,969.374Z" fill="#a1c798" opacity="0.37" style="isolation: isolate"/>
      <path id="Path_37496" data-name="Path 37496" d="M241.847,969.374a26.008,26.008,0,0,0,11.02,11.509,26.062,26.062,0,0,0,12.182-11.744A26.054,26.054,0,0,1,241.847,969.374Z" fill="#a1c798" opacity="0.37" style="isolation: isolate"/>
      <path id="Path_37497" data-name="Path 37497" d="M265.283,945.94a26.057,26.057,0,0,0-23.2.233,26.055,26.055,0,0,0-.234,23.2,26.054,26.054,0,0,0,23.2-.235A26.057,26.057,0,0,0,265.283,945.94Z" fill="#a1c798" opacity="0.37" style="isolation: isolate"/>
      <path id="Path_37498" data-name="Path 37498" d="M265.283,945.94a26.057,26.057,0,0,0-23.2.233,26.055,26.055,0,0,0-.234,23.2,26.054,26.054,0,0,0,23.2-.235A26.057,26.057,0,0,0,265.283,945.94Z" fill="#a1c798" opacity="0.37" style="isolation: isolate"/>
      <path id="Path_37499" data-name="Path 37499" d="M265.283,945.94a26.057,26.057,0,0,0-23.2.233,26.055,26.055,0,0,0-.234,23.2,26.054,26.054,0,0,0,23.2-.235A26.057,26.057,0,0,0,265.283,945.94Z" fill="#a1c798" opacity="0.37" style="isolation: isolate"/>
      <path id="Path_37500" data-name="Path 37500" d="M265.283,945.94a26.057,26.057,0,0,0-23.2.233,26.055,26.055,0,0,0-.234,23.2,26.054,26.054,0,0,0,23.2-.235A26.057,26.057,0,0,0,265.283,945.94Z" fill="#a1c798" opacity="0.37" style="isolation: isolate"/>
    </g>
    <g id="Group_35690" data-name="Group 35690" transform="translate(621.709 44)">
      <path id="Path_37472" data-name="Path 37472" d="M969.2,475.035a4.238,4.238,0,0,0-.813-4.9.283.283,0,0,1-.053-.064l-.075-.075-.481-.471-5.615-5.54a.76.76,0,0,0-1.1-.032.79.79,0,0,0,.128,1.059l5.936,5.85-1.187,1.209L960,466.222a.787.787,0,0,0-1.059-.107.753.753,0,0,0,.043,1.1l5.957,5.872-1.187,1.209-5.936-5.85a.788.788,0,0,0-1.059-.107.753.753,0,0,0,.043,1.1l5.6,5.529.481.471.075.075a.283.283,0,0,0,.064.053,4.239,4.239,0,0,0,4.909.749L969.5,477.9l1.446-1.179Z" transform="translate(-955.813 -463.734)" fill="#56745b"/>
      <path id="Path_37473" data-name="Path 37473" d="M981.311,476.263l-2.011-2.3a.758.758,0,0,0-1.059-.075l-1.364,1.183-.807-.926a.758.758,0,0,0-1.059-.075l-1.367,1.185-.408-.469a.758.758,0,0,0-1.059-.075l-.888.77a.644.644,0,0,0-.064.909l2.4,2.755-17.716,14.6-2.5-2.872a.643.643,0,0,0-.909-.064l-.888.77a.758.758,0,0,0-.075,1.059l.418.479-1.359,1.178a.758.758,0,0,0-.075,1.059l.811.932-1.368,1.186a.758.758,0,0,0-.075,1.059l2.011,2.3a.758.758,0,0,0,1.059.075l1.365-1.184.817.938a.758.758,0,0,0,1.059.075l1.361-1.18.4.464a.758.758,0,0,0,1.059.075l.888-.77a.644.644,0,0,0,.064-.909l-2.531-2.906,8.027-6.611,11.51,11.624a.225.225,0,0,0,.15.075c1.583.139,1.893-1.315,1.08-2.1l-11.246-10.832,8.2-6.753,2.629,3.019a.654.654,0,0,0,.909.064l.888-.77a.758.758,0,0,0,.075-1.059l-.413-.474,1.365-1.184a.758.758,0,0,0,.075-1.059l-.821-.943,1.367-1.185A.758.758,0,0,0,981.311,476.263Z" transform="translate(-949.708 -472.641)" fill="#56745b"/>
    </g>
  </g>
</svg>
