<svg xmlns="http://www.w3.org/2000/svg" id="male" width="8.584" height="10.775" viewBox="0 0 8.584 10.775">
    <defs>
        <style>
            .cls-1{fill:#fff}
        </style>
    </defs>
    <g id="Group_35685" data-name="Group 35685">
        <path id="Path_37471" d="M43.672 2.45L41.953.182l-.01-.014a.352.352 0 0 0-.379-.16h-.016l-2.814.349a.353.353 0 0 0 .078.7h.006l1.951-.239.3-.037-.125.282-1.051 2.493-.06.142-.142-.035a3.616 3.616 0 1 0 .936.4l-.132-.079.06-.142 1.056-2.494.125-.282.185.249 1.188 1.566a.354.354 0 0 0 .564-.428zm-2.837 2.67a2.92 2.92 0 1 1-.939-.636 2.92 2.92 0 0 1 .935.635z" class="cls-1" data-name="Path 37471" transform="translate(-35.15)"/>
    </g>
</svg>
